<svg width="24" height="24" viewBox="0 0 24 24" fill="none" xmlns="http://www.w3.org/2000/svg">
<path d="M5.72521 20.85C5.29161 20.85 4.92061 20.6958 4.61221 20.3874C4.30421 20.079 4.15021 19.7082 4.15021 19.275V9.85023C4.15021 9.60023 4.20441 9.36263 4.31281 9.13743C4.42081 8.91263 4.57481 8.72523 4.77481 8.57523L11.0502 3.87483C11.2002 3.77483 11.3544 3.69983 11.5128 3.64983C11.6708 3.59983 11.8332 3.57483 12 3.57483C12.1668 3.57483 12.3292 3.59983 12.4872 3.64983C12.6456 3.69983 12.7998 3.77483 12.9498 3.87483L19.2252 8.57523C19.4252 8.72523 19.5792 8.91263 19.6872 9.13743C19.7956 9.36263 19.8498 9.60023 19.8498 9.85023V19.275C19.8498 19.7082 19.6956 20.079 19.3872 20.3874C19.0792 20.6958 18.7084 20.85 18.2748 20.85H14.0502V13.9248H9.97501V20.85H5.72521Z" fill="#7D23E0"/>
</svg>
