<svg width="24" height="24" viewBox="0 0 24 24" fill="none" xmlns="http://www.w3.org/2000/svg">
<path d="M5.00005 3.72498H19C19.3192 3.72498 19.5886 3.83476 19.8082 4.05433C20.0278 4.27389 20.1375 4.54328 20.1375 4.86248C20.1375 5.18168 20.0278 5.45106 19.8082 5.67063C19.5886 5.89019 19.3192 5.99998 19 5.99998H5.00005C4.68085 5.99998 4.41146 5.89019 4.1919 5.67063C3.97233 5.45106 3.86255 5.18168 3.86255 4.86248C3.86255 4.54328 3.97233 4.27389 4.1919 4.05433C4.41146 3.83476 4.68085 3.72498 5.00005 3.72498ZM5.00005 20.275C4.68085 20.275 4.41146 20.1652 4.1919 19.9456C3.97233 19.7261 3.86255 19.4567 3.86255 19.1375V14.275H3.7294C3.37286 14.275 3.08464 14.1402 2.86472 13.8706C2.64479 13.6011 2.57214 13.29 2.64677 12.9375L3.68265 7.9016C3.74061 7.63638 3.87322 7.41981 4.08047 7.25188C4.28772 7.08394 4.52396 6.99998 4.78917 6.99998H19.2109C19.4761 6.99998 19.7124 7.08394 19.9196 7.25188C20.1269 7.41981 20.2595 7.63638 20.3174 7.9016L21.3533 12.9375C21.428 13.29 21.3553 13.6011 21.1354 13.8706C20.9155 14.1402 20.6272 14.275 20.2707 14.275H20.1375V19.1375C20.1375 19.4567 20.0278 19.7261 19.8082 19.9456C19.5886 20.1652 19.3192 20.275 19 20.275C18.6808 20.275 18.4115 20.1652 18.1919 19.9456C17.9723 19.7261 17.8625 19.4567 17.8625 19.1375V14.275H14.1375V19.1375C14.1375 19.4567 14.0278 19.7261 13.8082 19.9456C13.5886 20.1652 13.3192 20.275 13 20.275H5.00005ZM6.13755 18H11.8625V14.275H6.13755V18Z" fill="#A7A8A8"/>
</svg>
